<?xml version="1.0" standalone="no"?>
<!DOCTYPE svg PUBLIC "-//W3C//DTD SVG 20010904//EN"
 "http://www.w3.org/TR/2001/REC-SVG-20010904/DTD/svg10.dtd">
<svg version="1.0" xmlns="http://www.w3.org/2000/svg"
 width="339.000000pt" height="339.000000pt" viewBox="0 0 339.000000 339.000000"
 preserveAspectRatio="xMidYMid meet">
<metadata>
Created by potrace 1.11, written by Peter Selinger 2001-2013
</metadata>
<g transform="translate(0.000000,339.000000) scale(0.100000,-0.100000)"
fill="#000000" stroke="none">
<path d="M2138 3293 c-10 -2 -18 -9 -18 -14 0 -6 -4 -7 -10 -4 -5 3 -10 0 -10
-7 0 -14 -39 -44 -52 -40 -5 1 -8 -4 -8 -12 0 -8 -7 -17 -16 -20 -9 -4 -15 -9
-12 -12 3 -3 -11 -22 -31 -43 -55 -57 -86 -95 -83 -103 1 -5 -3 -8 -8 -8 -5 0
-10 -7 -10 -15 0 -8 -4 -15 -9 -15 -5 0 -11 -8 -15 -17 -7 -23 -28 -56 -41
-65 -5 -4 -11 -11 -11 -15 -5 -25 -17 -53 -24 -53 -9 0 -25 -40 -22 -52 1 -5
-2 -8 -8 -8 -5 0 -10 -7 -10 -15 0 -8 -5 -15 -10 -15 -6 0 -9 -3 -9 -7 1 -5 0
-11 -1 -15 -1 -5 -3 -11 -5 -15 -1 -5 -7 -21 -13 -36 -7 -16 -12 -31 -12 -35
0 -4 -10 -19 -23 -35 -18 -23 -32 -28 -84 -34 -35 -3 -63 -9 -63 -12 0 -3 -10
-7 -23 -8 -23 -2 -60 -10 -64 -13 -2 -2 -6 -3 -10 -4 -24 -5 -89 -30 -98 -36
-5 -5 -14 -9 -20 -11 -16 -3 -60 -23 -65 -30 -3 -3 -25 -16 -50 -30 -24 -13
-52 -32 -62 -41 -10 -10 -23 -18 -29 -18 -5 0 -8 -4 -5 -9 5 -7 -18 -23 -31
-22 -4 0 -73 -71 -73 -75 0 -4 -41 -53 -68 -80 -7 -8 -10 -14 -5 -14 4 0 3 -4
-2 -8 -27 -20 -115 -185 -118 -222 -1 -11 -5 -20 -9 -20 -4 0 -8 -11 -8 -24 0
-14 -4 -27 -9 -31 -6 -3 -10 -13 -10 -23 0 -34 -8 -88 -14 -98 -10 -17 2 -349
13 -349 1 0 4 -13 6 -29 2 -16 6 -36 10 -45 4 -9 9 -25 11 -35 2 -11 8 -25 13
-31 5 -6 11 -21 13 -32 2 -12 8 -28 15 -35 6 -8 9 -18 5 -21 -3 -4 -1 -7 5 -7
7 0 12 -7 12 -15 0 -8 4 -15 9 -15 5 0 11 -9 14 -20 8 -32 20 -50 65 -96 7 -8
10 -14 5 -14 -4 0 4 -11 19 -24 16 -13 28 -26 28 -30 0 -10 68 -76 77 -76 5 0
16 -8 25 -18 22 -23 51 -47 58 -47 3 0 19 -11 37 -24 17 -13 35 -23 40 -23 4
0 15 -5 23 -13 8 -7 40 -23 70 -35 65 -27 91 -52 84 -83 -11 -53 -17 -95 -18
-139 0 -27 -4 -48 -7 -48 -7 0 -8 -13 -12 -92 -1 -27 -5 -48 -8 -48 -3 0 -6
-15 -7 -32 -1 -18 -3 -52 -5 -75 -4 -33 -1 -43 10 -43 8 0 12 4 8 9 -3 5 0 13
6 16 5 4 8 13 5 20 -2 7 2 16 11 19 9 4 13 9 10 12 -8 8 13 64 25 64 5 0 6 4
3 10 -3 5 1 22 9 38 8 16 12 32 9 36 -4 3 -1 6 5 6 7 0 12 9 12 20 0 11 5 20
11 20 5 0 8 4 5 9 -3 5 5 34 19 65 14 31 22 56 18 56 -3 0 1 8 10 18 10 10 14
22 10 25 -15 15 33 43 67 40 65 -6 200 -8 200 -2 0 3 12 6 28 6 39 1 114 13
132 22 8 5 29 11 45 14 17 3 44 11 60 18 17 7 32 13 35 14 25 7 90 41 90 47 0
3 16 12 35 18 21 7 32 16 28 23 -4 6 0 8 10 4 9 -3 18 1 21 10 4 9 9 13 12 10
8 -7 42 26 37 36 -2 4 3 7 11 7 9 0 16 5 16 12 0 6 3 9 6 5 8 -8 34 18 34 33
0 6 3 9 8 7 9 -5 42 30 34 37 -3 3 0 6 7 6 7 0 9 5 6 10 -3 6 -1 10 5 10 5 0
19 15 30 33 11 17 20 28 20 22 0 -9 38 54 63 105 6 14 16 28 22 32 5 4 6 8 1
8 -5 0 -3 7 4 15 7 8 10 15 6 15 -4 0 0 14 9 30 9 17 13 30 9 30 -4 0 -1 6 5
14 7 8 14 27 17 42 3 16 8 31 12 34 8 5 13 40 12 82 0 15 3 29 7 31 10 6 9
270 0 312 -4 17 -9 39 -11 50 -6 29 -35 114 -53 155 -23 53 -106 190 -115 190
-4 0 -8 4 -8 10 0 12 -28 45 -97 117 -38 41 -58 54 -75 51 -17 -2 -23 -10 -24
-28 -1 -14 -7 -45 -15 -70 -7 -25 -14 -49 -15 -55 0 -5 -4 -17 -8 -25 -17 -39
10 -115 58 -165 20 -20 36 -41 36 -46 0 -5 5 -9 11 -9 5 0 7 -4 4 -10 -3 -5
-2 -10 4 -10 6 0 14 -12 17 -27 4 -16 12 -35 19 -43 7 -8 15 -24 17 -35 1 -11
6 -22 10 -25 13 -10 38 -124 44 -194 2 -38 7 -73 10 -78 3 -4 1 -8 -3 -8 -5 0
-7 -16 -5 -35 2 -20 -1 -57 -7 -83 -18 -73 -44 -156 -51 -162 -9 -7 -24 -43
-22 -52 1 -5 -2 -8 -8 -8 -6 0 -9 -3 -9 -7 3 -20 -2 -34 -11 -28 -9 5 -12 -1
-9 -21 0 -3 -16 -25 -35 -49 -20 -24 -36 -48 -36 -54 0 -5 -9 -13 -21 -16 -11
-4 -18 -9 -15 -12 7 -7 -17 -32 -26 -26 -5 2 -8 -1 -8 -6 0 -13 -36 -51 -43
-45 -2 2 -10 -2 -17 -11 -7 -8 -19 -15 -27 -15 -8 0 -11 -4 -8 -10 3 -5 -3
-10 -15 -10 -12 0 -18 -4 -15 -10 3 -5 1 -10 -5 -10 -6 0 -31 -9 -56 -20 -101
-46 -195 -67 -324 -72 -82 -3 -85 -2 -88 20 -3 19 35 135 78 237 28 69 32 82
32 143 1 47 -3 57 -31 85 -18 17 -38 32 -44 33 -7 2 -22 5 -35 8 -36 8 -91
-21 -115 -62 -12 -20 -21 -40 -19 -44 1 -5 -3 -8 -9 -8 -5 0 -7 -4 -4 -10 3
-5 1 -38 -6 -72 -6 -35 -14 -81 -16 -103 -5 -51 -10 -80 -13 -80 -1 0 -3 -16
-4 -35 -1 -19 -5 -40 -9 -47 -8 -13 -50 -8 -55 7 -2 5 -12 10 -23 10 -10 0
-19 5 -19 10 0 6 -3 9 -7 8 -16 -5 -110 67 -173 133 -75 77 -80 82 -106 129
-10 19 -22 37 -25 40 -12 9 -39 69 -39 85 0 8 -5 15 -11 15 -5 0 -7 5 -4 10 4
6 1 17 -5 25 -7 8 -9 15 -6 15 4 0 1 10 -5 22 -12 22 -18 52 -23 118 -2 19 -4
37 -6 40 -5 12 -7 66 -2 75 4 6 8 30 9 55 4 57 9 90 17 115 32 90 59 155 78
185 12 19 22 37 23 40 0 7 11 20 75 93 27 31 50 55 50 53 0 -3 13 8 28 22 44
41 86 72 98 72 6 0 17 7 24 15 7 9 15 13 17 11 3 -3 20 4 39 14 43 25 150 60
181 60 20 0 23 -5 23 -35 0 -33 -23 -92 -39 -105 -11 -8 -72 -101 -74 -113 -1
-7 -10 -19 -19 -28 -10 -9 -15 -19 -12 -22 4 -3 -1 -13 -10 -22 -9 -9 -14 -20
-11 -25 3 -5 2 -10 -2 -12 -10 -4 -78 -139 -78 -154 0 -6 -6 -18 -13 -27 -8
-9 -15 -22 -16 -29 -3 -12 -6 -22 -23 -65 -3 -10 -7 -20 -7 -23 -1 -3 -5 -11
-9 -17 -5 -7 -6 -17 -3 -22 4 -5 2 -11 -2 -13 -7 -3 -50 -127 -53 -153 0 -5
-5 -18 -10 -27 -7 -13 -6 -18 3 -18 10 0 10 -2 1 -8 -6 -4 -15 -21 -18 -37 -3
-17 -7 -35 -9 -42 -1 -7 -5 -15 -8 -19 -4 -3 -4 -12 -2 -19 3 -7 0 -16 -5 -20
-6 -3 -9 -10 -6 -14 2 -5 1 -22 -4 -38 -13 -46 0 -57 32 -27 15 14 25 29 22
35 -4 5 1 9 9 9 9 0 16 7 16 15 0 8 7 15 15 15 8 0 15 4 15 8 0 11 89 110 90
99 0 -4 15 8 34 28 19 19 39 35 46 35 6 0 8 4 5 10 -3 5 6 12 20 16 14 3 25
10 25 16 0 5 5 6 10 3 6 -3 10 -1 10 4 0 6 7 11 15 11 8 0 15 3 15 8 0 4 16
16 35 26 19 11 36 24 36 30 1 6 3 40 5 76 7 122 12 185 18 210 3 14 8 45 11
70 6 55 24 150 32 170 3 8 7 22 8 30 7 53 69 238 79 233 5 -3 6 -1 3 4 -8 13
12 73 24 73 5 0 9 11 9 24 0 14 5 28 10 31 6 3 10 15 10 26 0 10 4 19 9 19 10
0 23 30 18 41 -1 3 6 13 16 23 9 10 15 22 12 27 -4 5 -2 9 3 9 5 0 13 8 16 18
13 34 37 72 47 72 5 0 8 3 7 8 -4 13 13 52 23 52 5 0 9 6 9 14 0 8 7 16 15 20
8 3 20 17 25 31 5 14 15 23 23 19 10 -4 12 -28 10 -107 -2 -56 -5 -126 -5
-154 -1 -29 -5 -53 -9 -53 -4 0 -6 -17 -4 -37 1 -21 -2 -43 -7 -50 -5 -7 -7
-17 -4 -22 4 -5 2 -12 -3 -16 -5 -3 -8 -14 -6 -25 2 -11 1 -20 -3 -20 -4 0 -9
-12 -10 -26 -1 -15 -8 -34 -15 -42 -10 -13 -9 -14 1 -8 11 7 11 4 0 -13 -7
-12 -19 -21 -26 -21 -7 0 -11 4 -8 8 6 10 -30 52 -44 52 -5 0 -12 -17 -16 -37
-26 -147 -43 -222 -52 -240 -6 -11 -9 -23 -6 -26 3 -2 -2 -29 -11 -60 -8 -30
-18 -65 -21 -78 -3 -13 -6 -28 -8 -34 -2 -5 -6 -27 -11 -48 -4 -20 -11 -40
-16 -43 -5 -3 -7 -10 -4 -15 4 -5 2 -9 -4 -9 -5 0 -8 -8 -7 -17 2 -10 0 -27
-5 -38 -13 -34 -22 -60 -24 -67 -2 -5 -4 -10 -5 -13 -3 -5 -3 -6 -15 -50 -4
-16 -10 -34 -14 -40 -3 -5 -6 -26 -7 -45 0 -27 10 -49 48 -97 26 -35 48 -67
48 -73 0 -5 5 -10 10 -10 6 0 10 -6 10 -14 0 -8 4 -16 8 -18 4 -1 27 -43 51
-93 24 -49 50 -103 59 -120 9 -16 15 -31 14 -32 -3 -6 29 -73 36 -73 10 0 35
41 29 47 -3 2 -1 19 4 36 12 39 49 237 55 292 13 124 17 314 10 480 -2 37 2
66 10 75 7 8 13 17 13 20 0 11 15 46 25 59 5 7 11 18 12 25 1 7 11 33 23 58
11 26 23 55 24 65 2 10 9 29 14 43 6 14 8 31 5 39 -4 10 -1 12 7 7 9 -6 12 -2
10 10 -1 11 3 32 10 48 6 16 9 31 6 34 -2 3 -1 10 4 16 5 6 11 27 14 46 13 89
20 120 29 120 5 0 4 8 -1 19 -6 10 -7 21 -4 25 4 4 10 50 15 104 8 99 8 104 8
147 0 14 1 31 1 38 0 6 -2 32 -5 57 -4 25 -8 65 -11 90 -5 57 -13 107 -22 145
-4 17 -7 33 -7 37 -1 3 -4 9 -8 13 -4 4 -4 13 -1 21 3 8 0 14 -6 14 -6 0 -8 7
-5 15 4 8 1 15 -6 15 -6 0 -9 4 -6 9 4 5 1 22 -6 38 -13 31 -15 38 -17 53 -1
10 -13 11 -43 3z"/>
</g>
</svg>
